<mxfile host="65bd71144e">
    <diagram id="OUIdDhAu0dD4iLnrwpNA" name="Página-1">
        <mxGraphModel dx="1760" dy="628" grid="1" gridSize="10" guides="1" tooltips="1" connect="1" arrows="1" fold="1" page="1" pageScale="1" pageWidth="827" pageHeight="1169" math="0" shadow="0">
            <root>
                <mxCell id="0"/>
                <mxCell id="1" parent="0"/>
                <mxCell id="9" value="" style="edgeStyle=none;html=1;fontSize=12;endArrow=none;endFill=0;startArrow=none;" parent="1" source="27" target="8" edge="1">
                    <mxGeometry relative="1" as="geometry"/>
                </mxCell>
                <mxCell id="2" value="CLIENTES" style="rounded=0;whiteSpace=wrap;html=1;" parent="1" vertex="1">
                    <mxGeometry x="80" y="200" width="160" height="80" as="geometry"/>
                </mxCell>
                <mxCell id="3" value="BICICLETAS" style="rounded=0;whiteSpace=wrap;html=1;" parent="1" vertex="1">
                    <mxGeometry x="560" y="520" width="160" height="80" as="geometry"/>
                </mxCell>
                <mxCell id="4" value="&lt;span style=&quot;font-size: 36px;&quot;&gt;ALQUILER DE BICICLETAS&lt;/span&gt;" style="text;html=1;strokeColor=none;fillColor=none;align=center;verticalAlign=middle;whiteSpace=wrap;rounded=0;labelBackgroundColor=none;" parent="1" vertex="1">
                    <mxGeometry x="120" y="80" width="650" height="40" as="geometry"/>
                </mxCell>
                <mxCell id="12" value="" style="edgeStyle=none;html=1;fontSize=12;endArrow=none;endFill=0;startArrow=none;" parent="1" source="31" target="11" edge="1">
                    <mxGeometry relative="1" as="geometry"/>
                </mxCell>
                <mxCell id="6" value="ALQUILERES" style="rounded=0;whiteSpace=wrap;html=1;fontSize=12;" parent="1" vertex="1">
                    <mxGeometry x="560" y="200" width="160" height="80" as="geometry"/>
                </mxCell>
                <mxCell id="15" value="" style="edgeStyle=none;html=1;fontSize=12;endArrow=none;endFill=0;startArrow=none;" parent="1" source="37" target="14" edge="1">
                    <mxGeometry relative="1" as="geometry"/>
                </mxCell>
                <mxCell id="7" value="TIPOS DE BICICLETA" style="rounded=0;whiteSpace=wrap;html=1;fontSize=12;" parent="1" vertex="1">
                    <mxGeometry x="80" y="520" width="160" height="80" as="geometry"/>
                </mxCell>
                <mxCell id="10" value="" style="edgeStyle=none;html=1;fontSize=12;endArrow=none;endFill=0;startArrow=none;" parent="1" source="28" target="6" edge="1">
                    <mxGeometry relative="1" as="geometry"/>
                </mxCell>
                <mxCell id="8" value="solicitar" style="rhombus;whiteSpace=wrap;html=1;fontSize=12;" parent="1" vertex="1">
                    <mxGeometry x="320" y="200" width="160" height="80" as="geometry"/>
                </mxCell>
                <mxCell id="13" value="" style="edgeStyle=none;html=1;fontSize=12;endArrow=none;endFill=0;startArrow=none;" parent="1" source="38" target="3" edge="1">
                    <mxGeometry relative="1" as="geometry"/>
                </mxCell>
                <mxCell id="11" value="entregar" style="rhombus;whiteSpace=wrap;html=1;fontSize=12;" parent="1" vertex="1">
                    <mxGeometry x="560" y="360" width="160" height="80" as="geometry"/>
                </mxCell>
                <mxCell id="16" value="" style="edgeStyle=none;html=1;fontSize=12;endArrow=none;endFill=0;startArrow=none;" parent="1" source="17" target="3" edge="1">
                    <mxGeometry relative="1" as="geometry"/>
                </mxCell>
                <mxCell id="14" value="pertenece" style="rhombus;whiteSpace=wrap;html=1;fontSize=12;" parent="1" vertex="1">
                    <mxGeometry x="320" y="520" width="160" height="80" as="geometry"/>
                </mxCell>
                <mxCell id="18" style="html=1;labelBorderColor=none;strokeWidth=1;endArrow=oval;endFill=1;endSize=6;targetPerimeterSpacing=0;align=left;fontSize=12;exitX=0;exitY=0.25;exitDx=0;exitDy=0;" parent="1" source="7" target="19" edge="1">
                    <mxGeometry relative="1" as="geometry">
                        <mxPoint x="100" y="400" as="sourcePoint"/>
                    </mxGeometry>
                </mxCell>
                <mxCell id="19" value="Nombre" style="text;html=1;strokeColor=none;fillColor=none;align=left;verticalAlign=middle;whiteSpace=wrap;rounded=0;container=0;spacingLeft=8;fontSize=12;" parent="1" vertex="1">
                    <mxGeometry y="530" width="60" height="20" as="geometry"/>
                </mxCell>
                <mxCell id="20" style="html=1;labelBorderColor=none;strokeWidth=1;endArrow=oval;endFill=1;endSize=6;targetPerimeterSpacing=0;align=left;fontSize=12;exitX=0;exitY=0;exitDx=0;exitDy=0;" parent="1" source="2" target="21" edge="1">
                    <mxGeometry relative="1" as="geometry">
                        <mxPoint x="80" y="180" as="sourcePoint"/>
                    </mxGeometry>
                </mxCell>
                <mxCell id="21" value="Número" style="text;html=1;strokeColor=none;fillColor=none;align=left;verticalAlign=middle;whiteSpace=wrap;rounded=0;container=0;spacingLeft=8;fontSize=12;" parent="1" vertex="1">
                    <mxGeometry y="190" width="60" height="20" as="geometry"/>
                </mxCell>
                <mxCell id="22" style="html=1;labelBorderColor=none;strokeWidth=1;endArrow=oval;endFill=0;endSize=6;targetPerimeterSpacing=0;align=left;fontSize=12;exitX=1;exitY=0.75;exitDx=0;exitDy=0;" parent="1" source="6" target="23" edge="1">
                    <mxGeometry relative="1" as="geometry">
                        <mxPoint x="560" y="150" as="sourcePoint"/>
                    </mxGeometry>
                </mxCell>
                <mxCell id="23" value="Fecha desde" style="text;html=1;strokeColor=none;fillColor=none;align=left;verticalAlign=middle;whiteSpace=wrap;rounded=0;container=0;spacingLeft=8;fontSize=12;" parent="1" vertex="1">
                    <mxGeometry x="740" y="250" width="80" height="20" as="geometry"/>
                </mxCell>
                <mxCell id="24" style="html=1;labelBorderColor=none;strokeWidth=1;endArrow=oval;endFill=0;endSize=6;targetPerimeterSpacing=0;align=left;fontSize=12;exitX=1;exitY=0.5;exitDx=0;exitDy=0;" parent="1" source="6" target="25" edge="1">
                    <mxGeometry relative="1" as="geometry">
                        <mxPoint x="610" y="170" as="sourcePoint"/>
                    </mxGeometry>
                </mxCell>
                <mxCell id="25" value="Fecha hasta" style="text;html=1;strokeColor=none;fillColor=none;align=left;verticalAlign=middle;whiteSpace=wrap;rounded=0;container=0;spacingLeft=8;fontSize=12;" parent="1" vertex="1">
                    <mxGeometry x="740" y="230" width="80" height="20" as="geometry"/>
                </mxCell>
                <mxCell id="32" value="" style="edgeStyle=none;html=1;fontSize=12;endArrow=none;endFill=0;" parent="1" source="6" target="31" edge="1">
                    <mxGeometry relative="1" as="geometry">
                        <mxPoint x="640" y="280" as="sourcePoint"/>
                        <mxPoint x="640" y="360" as="targetPoint"/>
                    </mxGeometry>
                </mxCell>
                <mxCell id="31" value="(1, 1)" style="text;html=1;strokeColor=none;fillColor=none;align=center;verticalAlign=middle;whiteSpace=wrap;rounded=0;labelBackgroundColor=none;fontSize=12;" parent="1" vertex="1">
                    <mxGeometry x="620" y="310" width="40" height="20" as="geometry"/>
                </mxCell>
                <mxCell id="33" value="" style="edgeStyle=none;html=1;fontSize=12;endArrow=none;endFill=0;" parent="1" source="8" target="28" edge="1">
                    <mxGeometry relative="1" as="geometry">
                        <mxPoint x="480" y="240" as="sourcePoint"/>
                        <mxPoint x="560" y="240" as="targetPoint"/>
                    </mxGeometry>
                </mxCell>
                <mxCell id="28" value="(1, 1)" style="text;html=1;strokeColor=none;fillColor=none;align=center;verticalAlign=middle;whiteSpace=wrap;rounded=0;labelBackgroundColor=none;fontSize=12;" parent="1" vertex="1">
                    <mxGeometry x="500" y="230" width="40" height="20" as="geometry"/>
                </mxCell>
                <mxCell id="34" value="" style="edgeStyle=none;html=1;fontSize=12;endArrow=none;endFill=0;" parent="1" source="2" target="27" edge="1">
                    <mxGeometry relative="1" as="geometry">
                        <mxPoint x="240.0000000000001" y="240" as="sourcePoint"/>
                        <mxPoint x="319.9999999999999" y="240" as="targetPoint"/>
                    </mxGeometry>
                </mxCell>
                <mxCell id="27" value="(0, n)" style="text;html=1;strokeColor=none;fillColor=none;align=center;verticalAlign=middle;whiteSpace=wrap;rounded=0;labelBackgroundColor=none;fontSize=12;" parent="1" vertex="1">
                    <mxGeometry x="260" y="230" width="40" height="20" as="geometry"/>
                </mxCell>
                <mxCell id="35" value="" style="edgeStyle=none;html=1;fontSize=12;endArrow=none;endFill=0;" parent="1" source="14" target="17" edge="1">
                    <mxGeometry relative="1" as="geometry">
                        <mxPoint x="480" y="560.0000000000001" as="sourcePoint"/>
                        <mxPoint x="560" y="560.0000000000001" as="targetPoint"/>
                    </mxGeometry>
                </mxCell>
                <mxCell id="17" value="(1, 1)" style="text;html=1;strokeColor=none;fillColor=none;align=center;verticalAlign=middle;whiteSpace=wrap;rounded=0;labelBackgroundColor=none;fontSize=12;" parent="1" vertex="1">
                    <mxGeometry x="500" y="550" width="40" height="20" as="geometry"/>
                </mxCell>
                <mxCell id="36" value="" style="edgeStyle=none;html=1;fontSize=12;endArrow=none;endFill=0;" parent="1" source="7" target="37" edge="1">
                    <mxGeometry relative="1" as="geometry">
                        <mxPoint x="240.0000000000001" y="560.0000000000001" as="sourcePoint"/>
                        <mxPoint x="319.9999999999999" y="560.0000000000001" as="targetPoint"/>
                    </mxGeometry>
                </mxCell>
                <mxCell id="37" value="(1, 1)" style="text;html=1;strokeColor=none;fillColor=none;align=center;verticalAlign=middle;whiteSpace=wrap;rounded=0;labelBackgroundColor=none;fontSize=12;" parent="1" vertex="1">
                    <mxGeometry x="260" y="550" width="40" height="20" as="geometry"/>
                </mxCell>
                <mxCell id="39" value="" style="edgeStyle=none;html=1;fontSize=12;endArrow=none;endFill=0;" parent="1" source="11" target="38" edge="1">
                    <mxGeometry relative="1" as="geometry">
                        <mxPoint x="640" y="440" as="sourcePoint"/>
                        <mxPoint x="640" y="520.0000000000001" as="targetPoint"/>
                    </mxGeometry>
                </mxCell>
                <mxCell id="38" value="(1, 1)" style="text;html=1;strokeColor=none;fillColor=none;align=center;verticalAlign=middle;whiteSpace=wrap;rounded=0;labelBackgroundColor=none;fontSize=12;" parent="1" vertex="1">
                    <mxGeometry x="620" y="470" width="40" height="20" as="geometry"/>
                </mxCell>
                <mxCell id="40" style="html=1;labelBorderColor=none;strokeWidth=1;endArrow=oval;endFill=1;endSize=6;targetPerimeterSpacing=0;align=left;fontSize=12;" parent="1" edge="1">
                    <mxGeometry relative="1" as="geometry">
                        <mxPoint x="640" y="460" as="sourcePoint"/>
                        <mxPoint x="730" y="260" as="targetPoint"/>
                        <Array as="points">
                            <mxPoint x="730" y="460"/>
                        </Array>
                    </mxGeometry>
                </mxCell>
                <mxCell id="46" style="html=1;labelBorderColor=none;strokeWidth=1;endArrow=oval;endFill=1;endSize=6;targetPerimeterSpacing=0;align=left;fontSize=12;" parent="1" edge="1">
                    <mxGeometry relative="1" as="geometry">
                        <mxPoint x="730" y="260" as="sourcePoint"/>
                        <mxPoint x="730" y="240" as="targetPoint"/>
                    </mxGeometry>
                </mxCell>
                <mxCell id="47" style="html=1;labelBorderColor=none;strokeWidth=1;endArrow=oval;endFill=1;endSize=6;targetPerimeterSpacing=0;align=left;fontSize=12;" parent="1" edge="1">
                    <mxGeometry relative="1" as="geometry">
                        <mxPoint x="730" y="240" as="sourcePoint"/>
                        <mxPoint x="730" y="230" as="targetPoint"/>
                    </mxGeometry>
                </mxCell>
                <mxCell id="48" style="html=1;labelBorderColor=none;strokeWidth=1;endArrow=oval;endFill=1;endSize=6;targetPerimeterSpacing=0;align=left;fontSize=12;exitX=1;exitY=0.25;exitDx=0;exitDy=0;" parent="1" source="3" target="49" edge="1">
                    <mxGeometry relative="1" as="geometry">
                        <mxPoint x="720" y="540" as="sourcePoint"/>
                    </mxGeometry>
                </mxCell>
                <mxCell id="49" value="Número" style="text;html=1;strokeColor=none;fillColor=none;align=left;verticalAlign=middle;whiteSpace=wrap;rounded=0;container=0;spacingLeft=8;fontSize=12;" parent="1" vertex="1">
                    <mxGeometry x="740" y="530" width="60" height="20" as="geometry"/>
                </mxCell>
                <mxCell id="53" style="html=1;labelBorderColor=none;strokeWidth=1;endArrow=oval;endFill=0;endSize=6;targetPerimeterSpacing=0;align=left;exitX=0;exitY=0.5;exitDx=0;exitDy=0;" edge="1" target="54" parent="1" source="2">
                    <mxGeometry relative="1" as="geometry">
                        <mxPoint x="-30" y="150" as="sourcePoint"/>
                    </mxGeometry>
                </mxCell>
                <mxCell id="54" value="Nombre" style="text;html=1;strokeColor=none;fillColor=none;align=left;verticalAlign=middle;whiteSpace=wrap;rounded=0;container=0;spacingLeft=8;" vertex="1" parent="1">
                    <mxGeometry y="230" width="60" height="20" as="geometry"/>
                </mxCell>
                <mxCell id="56" style="html=1;labelBorderColor=none;strokeWidth=1;endArrow=oval;endFill=0;endSize=6;targetPerimeterSpacing=0;align=left;exitX=0;exitY=0.25;exitDx=0;exitDy=0;" edge="1" target="57" parent="1" source="2">
                    <mxGeometry relative="1" as="geometry">
                        <mxPoint x="-10" y="190" as="sourcePoint"/>
                    </mxGeometry>
                </mxCell>
                <mxCell id="57" value="Apellido" style="text;html=1;strokeColor=none;fillColor=none;align=left;verticalAlign=middle;whiteSpace=wrap;rounded=0;container=0;spacingLeft=8;" vertex="1" parent="1">
                    <mxGeometry y="210" width="60" height="20" as="geometry"/>
                </mxCell>
                <mxCell id="62" style="html=1;labelBorderColor=none;strokeWidth=1;endArrow=oval;endFill=0;endSize=6;targetPerimeterSpacing=0;align=left;exitX=0;exitY=1;exitDx=0;exitDy=0;" edge="1" target="63" parent="1" source="2">
                    <mxGeometry relative="1" as="geometry">
                        <mxPoint x="-40" y="270" as="sourcePoint"/>
                    </mxGeometry>
                </mxCell>
                <mxCell id="63" value="Fecha de nacimiento" style="text;html=1;strokeColor=none;fillColor=none;align=left;verticalAlign=middle;whiteSpace=wrap;rounded=0;container=0;spacingLeft=8;" vertex="1" parent="1">
                    <mxGeometry x="-70" y="270" width="130" height="20" as="geometry"/>
                </mxCell>
                <mxCell id="64" style="html=1;labelBorderColor=none;strokeWidth=1;endArrow=oval;endFill=0;endSize=6;targetPerimeterSpacing=0;align=left;entryX=1;entryY=0.5;entryDx=0;entryDy=0;exitX=0;exitY=0.75;exitDx=0;exitDy=0;" edge="1" target="65" parent="1" source="2">
                    <mxGeometry relative="1" as="geometry">
                        <mxPoint x="-20" y="310" as="sourcePoint"/>
                    </mxGeometry>
                </mxCell>
                <mxCell id="65" value="Dirección" style="text;html=1;strokeColor=none;fillColor=none;align=left;verticalAlign=middle;whiteSpace=wrap;rounded=0;container=0;spacingLeft=8;" vertex="1" parent="1">
                    <mxGeometry x="-10" y="250" width="70" height="20" as="geometry"/>
                </mxCell>
                <mxCell id="66" style="html=1;labelBorderColor=none;strokeWidth=1;endArrow=oval;endFill=0;endSize=6;targetPerimeterSpacing=0;align=left;exitX=0;exitY=0.75;exitDx=0;exitDy=0;" edge="1" target="67" parent="1" source="7">
                    <mxGeometry relative="1" as="geometry">
                        <mxPoint x="140" y="370" as="sourcePoint"/>
                    </mxGeometry>
                </mxCell>
                <mxCell id="67" value="Descripción" style="text;html=1;strokeColor=none;fillColor=none;align=left;verticalAlign=middle;whiteSpace=wrap;rounded=0;container=0;spacingLeft=8;" vertex="1" parent="1">
                    <mxGeometry x="-20" y="570" width="80" height="20" as="geometry"/>
                </mxCell>
                <mxCell id="68" style="html=1;labelBorderColor=none;strokeWidth=1;endArrow=oval;endFill=0;endSize=6;targetPerimeterSpacing=0;align=left;exitX=1;exitY=0.75;exitDx=0;exitDy=0;" edge="1" target="69" parent="1" source="3">
                    <mxGeometry relative="1" as="geometry">
                        <mxPoint x="720" y="640" as="sourcePoint"/>
                    </mxGeometry>
                </mxCell>
                <mxCell id="69" value="Descripción" style="text;html=1;strokeColor=none;fillColor=none;align=left;verticalAlign=middle;whiteSpace=wrap;rounded=0;container=0;spacingLeft=8;" vertex="1" parent="1">
                    <mxGeometry x="740" y="570" width="80" height="20" as="geometry"/>
                </mxCell>
            </root>
        </mxGraphModel>
    </diagram>
</mxfile>